<?xml version="1.0" standalone="no"?>
<!DOCTYPE svg PUBLIC "-//W3C//DTD SVG 1.1//EN" "http://www.w3.org/Graphics/SVG/1.1/DTD/svg11.dtd">
<svg xmlns="http://www.w3.org/2000/svg">
<metadata>Generated by Fontastic.me</metadata>
<defs>
<font id="perfectketo" horiz-adv-x="512">
<font-face font-family="perfectketo" units-per-em="512" ascent="480" descent="-32"/>
<missing-glyph horiz-adv-x="512" />

<glyph glyph-name="add-substract" unicode="&#97;" d="M465 512l-418 0c-26 0-47-21-47-47l0-418c0-26 21-47 47-47l418 0c26 0 47 21 47 47l0 418c0 26-21 47-47 47z m-116-419l-186 0c-13 0-23 11-23 23 0 13 10 24 23 24l186 0c13 0 23-11 23-24 0-12-10-23-23-23z m0 210l-70 0 0-70c0-13-10-24-23-24-13 0-23 11-23 24l0 70-70 0c-13 0-23 10-23 23 0 13 10 23 23 23l70 0 0 70c0 13 10 23 23 23 13 0 23-10 23-23l0-70 70 0c13 0 23-10 23-23 0-13-10-23-23-23z"/>
<glyph glyph-name="bag" unicode="&#98;" d="M511 72l-42 377c0 24-19 43-42 43l-342 0c-23 0-42-19-42-43l-42-377c-1-3-1-6-1-9 0-24 19-43 43-43l426 0c24 0 43 19 43 43 0 3 0 6-1 9z m-138 317l0-24c0-60-48-109-107-109-59 0-107 49-107 109l0 24c-12 5-21 17-21 31 0 18 14 33 32 33 18 0 32-15 32-33l0-55c0-36 29-65 64-65 35 0 64 29 64 65l0 55c0 18 14 33 32 33 18 0 32-15 32-33 0-14-9-26-21-31z"/>
<glyph glyph-name="target" unicode="&#99;" d="M256 512c-141 0-256-115-256-256 0-141 115-256 256-256 141 0 256 115 256 256 0 51-15 99-41 139l-17-17-28 0-31-30c18-26 28-58 28-92 0-92-75-167-167-167-92 0-167 75-167 167 0 92 75 167 167 167 34 0 66-10 92-28l30 31 0 28 17 17c-40 26-88 41-139 41z m200-11l-55-56 0-29-153-152c-3-3-4-7-3-11 1-4 4-7 8-8 4-1 8 0 11 3l152 153 29 0 56 55-45 0z m-200-145c-55 0-100-45-100-100 0-55 45-100 100-100 55 0 100 45 100 100 0 15-3 30-10 43l-66-67c-7-6-15-9-24-9-9 0-17 3-24 9-6 7-9 15-9 24 0 9 3 17 9 24l67 66c-13 7-28 10-43 10z"/>
<glyph glyph-name="search" unicode="&#100;" d="M366 190l-23 0-8 8c28 33 46 77 46 124 0 105-86 190-191 190-105 0-190-85-190-190 0-105 85-191 190-191 47 0 91 18 124 46l8-8 0-23 146-146 44 44z m-176 0c-73 0-131 59-131 132 0 73 58 131 131 131 73 0 132-58 132-131 0-73-59-132-132-132z"/>
<glyph glyph-name="bolt" unicode="&#102;" d="M249 512l-102-258 94 0-71-254 195 313-103 0 99 199z"/>
<glyph glyph-name="user" unicode="&#103;" d="M256 512c-63 0-114-51-114-114 0-63 51-114 114-114 63 0 114 51 114 114 0 63-51 114-114 114z m-81-323c-2 0-5 0-7 0-81-18-168-57-168-118l0-43c0-15 13-28 28-28l456 0c15 0 28 13 28 28l0 43c0 61-87 100-168 118-9 2-19-1-26-8l-42-42c-11-11-29-11-40 0l-42 42c-5 5-12 8-19 8z"/>
<glyph glyph-name="book-2" unicode="&#104;" d="M107 512c-36 0-64-29-64-64l0-299c0-5 2-11 6-15 3-9 7-18 12-25-11-12-18-28-18-45 0-6 2-11 6-15 7-27 28-49 58-49l341 0c8 0 15 4 19 11 4 6 4 14 0 21-4 7-11 11-19 11l-341 0c-12 0-22 9-22 21 0 12 10 21 22 21l341 0c8 0 15 4 19 11 4 7 4 15 0 21-4 7-11 11-19 11l-341 0c-12 0-22 9-22 21 0 12 10 22 22 22l320 0c23 0 42 19 42 42l0 256c0 24-19 43-42 43z m85-85l149 0c12 0 22-10 22-22 0-11-10-21-22-21l-149 0c-12 0-21 10-21 21 0 12 9 22 21 22z"/>
<glyph glyph-name="book-recipes" unicode="&#105;" d="M107 512c-36 0-64-29-64-64l0-384c0-6 2-11 6-15 7-27 28-49 58-49l341 0c8 0 15 4 19 11 4 6 4 14 0 21-4 7-11 11-19 11l-341 0c-12 0-22 9-22 21 0 12 10 21 22 21l320 0c23 0 42 19 42 43l0 341c0 24-19 43-42 43z m240-86c16 2 32-3 44-14 22-23 18-63-9-90-20-21-49-28-71-20l-125-125c-9-8-22-8-30 0-9 8-9 22 0 30l49 49-28 27c-32 32-39 81-18 121l97-97 25 25c-8 22-1 51 19 72 14 13 31 21 47 22z m-33-176l42-43c9-8 9-22 0-30-8-8-21-8-30 0l-42 43z"/>
<glyph glyph-name="close" unicode="&#106;" d="M36 512l-36-36 220-220-220-220 36-36 220 220 220-220 36 36-220 220 220 220-36 36-220-220z"/>
<glyph glyph-name="fire" unicode="&#107;" d="M224 512c-14-156-177-194-177-328 0-104 105-176 171-176-14 17-77 55-14 172 21-110 164-59 84 125 90-76 93-177 27-305 66 28 150 94 150 180 0 94-70 215-241 332z"/>
<glyph glyph-name="info" unicode="&#108;" d="M256 512c-141 0-256-115-256-256 0-141 115-256 256-256 141 0 256 115 256 256 0 141-115 256-256 256z m21-384l-42 0 0 149 42 0z m-21 203c-18 0-32 14-32 32 0 17 14 32 32 32 18 0 32-15 32-32 0-18-14-32-32-32z"/>
<glyph glyph-name="heart" unicode="&#109;" d="M369 480c-48 0-90-35-113-59-23 24-65 59-113 59-84 0-143-59-143-143 0-92 73-152 143-210 34-27 68-55 94-87 5-5 11-8 18-8l2 0c7 0 13 3 17 8 27 32 61 60 95 87 70 58 143 118 143 210 0 84-59 143-143 143z"/>
<glyph glyph-name="location" unicode="&#110;" d="M256 512c-141 0-256-115-256-256 0-141 115-256 256-256 141 0 256 115 256 256 0 141-115 256-256 256z m0-418l-20 142-142 20 280 118z"/>
<glyph glyph-name="question" unicode="&#111;" d="M256 512c-141 0-256-115-256-256 0-141 115-256 256-256 141 0 256 115 256 256 0 141-115 256-256 256z m0-416c-18 0-32 14-32 32 0 18 14 32 32 32 18 0 32-14 32-32 0-18-14-32-32-32z m44 149c-14-13-23-21-23-32l-42 0c0 30 20 49 36 64 17 15 28 26 28 43 0 24-19 43-43 43-24 0-43-19-43-43l-42 0c0 47 38 85 85 85 47 0 85-38 85-85 0-37-23-58-41-75z"/>
<glyph glyph-name="running" unicode="&#112;" d="M386 512c-26 0-48-21-48-47 0-26 22-48 48-48 27 0 48 22 48 48 0 26-21 47-48 47z m-172-73c-3 0-6-2-9-3l-71-55c-12-10-23-22-15-33 5-7 22-4 31 2l74 39 49-11-66-96c-15-26-20-46 7-69l31-19 63-43-39-95c-15-35-11-50-1-54 10-5 24-2 45 36l60 112c6 13 2 28-10 36l-76 51 54 85 21-47c4-8 12-15 20-16 0 0 62 1 78 2 18 1 37 4 37 16 1 17-15 18-31 19l-61 5-35 78c-1 1-2 2-2 2 0 1-1 2-1 2 0 1 0 1 0 2-1 0-1 1-2 1l-1 1c-2 2-5 4-8 5l-36 25c-3 2-6 3-9 4l-87 18c-3 1-6 1-10 0z m-38-225l-28-38c0 0-75-6-101-7-21-1-33-9-33-22 0-13 10-20 40-22 25-2 110-7 110-7 10 0 20 5 27 15l28 40c0 0-40 26-43 41z"/>
<glyph glyph-name="youtube" unicode="&#101;" d="M213 318l109-62-109-62z m299 139l0-402c0-30-25-55-55-55l-402 0c-30 0-55 25-55 55l0 402c0 30 25 55 55 55l402 0c30 0 55-25 55-55z m-48-201c0 0 0 68-9 100-4 19-19 33-36 37-33 9-163 9-163 9 0 0-130 0-163-9-17-4-32-18-36-37-9-32-9-100-9-100 0 0 0-68 9-101 4-18 19-32 36-37 33-8 163-8 163-8 0 0 130 0 163 9 17 4 32 18 36 36 9 33 9 101 9 101z"/>
<glyph glyph-name="twitter" unicode="&#113;" d="M459 361c1-4 1-9 1-13 0-141-106-302-299-302-59 0-115 17-161 47 8-1 17-1 25-1 49 0 95 17 131 45-47 1-85 32-98 74 6-1 12-2 19-2 10 0 19 2 28 4-48 10-84 53-84 104l0 1c14-7 30-12 47-13-28 19-47 52-47 88 0 20 6 38 15 54 51-65 129-107 216-111-2 8-2 16-2 24 0 59 46 106 104 106 31 0 58-13 77-33 24 4 47 13 67 25-8-24-25-45-46-58 21 2 41 8 60 16-14-21-32-39-53-55z"/>
<glyph glyph-name="pinterest" unicode="&#114;" d="M512 256c0-141-115-256-256-256-26 0-52 4-76 11 11 17 26 45 32 68 3 12 16 60 16 60 8-15 33-29 59-29 77 0 132 71 132 159 0 85-69 148-157 148-111 0-170-74-170-155 0-37 20-84 52-99 5-2 8-1 9 3 1 4 5 21 7 29 1 3 0 5-2 8-10 13-19 36-19 58 0 57 43 111 116 111 63 0 107-43 107-104 0-69-35-117-81-117-25 0-44 21-37 46 7 31 21 63 21 85 0 20-11 36-33 36-25 0-46-26-46-62 0-23 8-38 8-38 0 0-26-107-30-127-6-22-3-53-1-73-95 37-163 130-163 238 0 141 115 256 256 256 141 0 256-115 256-256z"/>
<glyph glyph-name="facebook" unicode="&#115;" d="M457 512l-402 0c-30 0-55-25-55-55l0-402c0-30 25-55 55-55l157 0 0 174-72 0 0 82 72 0 0 62c0 71 42 111 107 111 31 0 63-6 63-6l0-70-36 0c-35 0-46-21-46-44l0-53 79 0-13-82-66 0 0-174 157 0c30 0 55 25 55 55l0 402c0 30-25 55-55 55z"/>
<glyph glyph-name="instagram" unicode="&#116;" d="M256 387c-72 0-131-59-131-131 0-73 59-131 131-131 72 0 131 58 131 131 0 72-59 131-131 131z m0-217c-47 0-85 39-85 86 0 47 38 85 85 85 47 0 85-38 85-85 0-47-38-86-85-86z m167 222c0-17-14-31-31-31-17 0-30 14-30 31 0 17 13 30 30 30 17 0 31-13 31-30z m86-31c-2 41-11 77-41 107-30 30-66 39-107 41-42 3-168 3-210 0-41-2-77-11-107-41-30-30-39-66-41-107-3-42-3-169 0-211 2-41 11-77 41-107 30-30 66-39 107-41 42-3 168-3 210 0 41 2 77 11 107 41 30 30 39 66 41 107 3 42 3 169 0 211z m-54-256c-9-22-26-40-49-49-33-13-113-10-150-10-37 0-117-3-150 10-22 9-40 26-49 49-13 34-10 113-10 151 0 37-3 117 10 150 9 23 26 40 49 49 33 13 113 10 150 10 37 0 117 3 150-10 23-9 40-26 49-49 13-33 10-113 10-150 0-38 3-118-10-151z"/>
<glyph glyph-name="menu" unicode="&#117;" d="M28 451l456 0c16 0 28-12 28-28 0-15-12-28-28-28l-456 0c-16 0-28 13-28 28 0 16 12 28 28 28z m0-167l456 0c16 0 28-13 28-28 0-15-12-28-28-28l-456 0c-16 0-28 13-28 28 0 15 12 28 28 28z m0-167l456 0c16 0 28-13 28-28 0-16-12-28-28-28l-456 0c-16 0-28 12-28 28 0 15 12 28 28 28z"/>
<glyph glyph-name="perfectketo" unicode="&#118;" d="M232 455c0-26-21-47-48-47-27 0-49 21-49 47 0 26 22 47 49 47 27 0 48-21 48-47z m147 0c0-26-21-47-48-47-27 0-49 21-49 47 0 26 22 47 49 47 27 0 48-21 48-47z m62-26c46-46 71-107 71-171 0-66-27-128-75-175-50-49-116-73-181-73-66 0-131 24-181 73-98 95-100 248-5 345 2 2 7 3 12-2l61-59c0 0 0 0 0 0 6-9 0-14 0-14l0 0c-52-57-49-143 7-198 28-27 66-42 106-42 40 0 78 15 106 42 56 55 58 142 6 199l1 0c0 0-6 4-2 12l65 63c4 2 7 1 9 0z"/>
<glyph glyph-name="phone" unicode="&#119;" d="M441 157c-31 26-62 42-92 16l-18-16c-13-11-37-65-132 44-94 109-38 126-25 137l18 16c30 26 19 59-3 93l-13 20c-22 34-45 56-75 30l-16-14c-14-10-51-41-60-101-11-72 24-154 102-244 78-90 155-135 227-134 60 0 97 33 108 44l16 15c30 26 12 52-19 78z"/>
<glyph glyph-name="deal" unicode="&#120;" d="M256 512c-141 0-256-115-256-256 0-141 115-256 256-256 141 0 256 115 256 256 0 141-115 256-256 256z m21-381l0-46-42 0 0 46c-46 6-74 32-76 72l49 0c2-20 22-32 50-32 26 0 45 12 45 30 0 16-12 25-42 31l-31 7c-44 9-65 32-65 68 0 39 27 67 70 74l0 46 42 0 0-46c42-7 70-34 72-71l-48 0c-2 19-20 32-44 32-25 0-42-12-42-30 0-15 12-24 40-30l29-6c48-10 69-31 69-68 0-43-28-70-76-77z"/>
<glyph glyph-name="chat" unicode="&#121;" d="M197 492c-107 0-197-74-197-167 0-48 26-90 63-120-3-19-10-34-19-44-4-6-9-11-13-16-2-2-4-4-6-8-1-2-3-4-3-8-1-4 0-11 3-16l3-4 5-3c17-8 35-7 53-2 17 5 33 13 49 21 15 8 30 17 42 23 2 1 3 1 5 2 31-43 87-71 151-71 1 0 1 0 2 0 25 0 108-85 157-51 2 8-43 27-45 86 38 27 63 68 63 112 0 67-53 122-123 141-22 73-100 125-190 125z m0-39c89 0 157-60 157-128 0-68-68-128-157-128-16 0-25-7-38-14-13-7-28-15-43-23-12-7-24-12-35-15 10 15 22 36 24 64l0 11-9 7c-35 25-57 60-57 98 0 68 68 128 158 128z"/>
<glyph glyph-name="box" unicode="&#122;" d="M245 508l-245-96 0-265 295-145 217 145 0 265z m1-42l220-80-62-33-224 87z m-93-36l228-89-74-39-239 94z m-112-45l254-99 0-237-3-2-253 125 0 213z m392-60c4 0 6-2 6-7 0-6-4-14-9-17l-39-26c-6-4-12-1-12 6 0 7 4 16 11 19l40 24c1 0 2 1 3 1z"/>
<glyph glyph-name="apple" unicode="&#65;" d="M383 383c26-5 47-19 64-42 14-21 24-47 30-78 4-29 4-57-1-86-8-47-24-87-48-119-29-39-65-58-108-58-10 0-22 3-35 10-8 5-18 8-29 8-10 0-20-3-28-8-13-7-25-10-35-10-43 0-79 19-108 58-24 32-40 72-48 119-5 29-5 57-1 86 6 31 16 57 30 78 17 23 38 37 64 42 16 3 38 0 66-7 24-7 44-15 60-24 17 9 37 17 61 24 28 7 50 10 66 7z m-55 41c-9-9-21-15-37-19-10-3-22-5-35-5l-14 1c-2 9-2 20 0 32 2 24 10 42 22 55 10 9 22 15 37 19 11 3 23 5 35 5l15-1 1-15c0-13-1-24-5-35-4-15-10-28-19-37z"/>
<glyph glyph-name="arrow-down" unicode="&#66;" d="M488 384c-6 0-12-2-16-7l-216-198-216 198c-4 5-10 7-17 7-9 0-18-5-21-13-4-8-2-18 5-24l233-213c9-8 23-8 32 0l233 213c7 6 9 16 5 24-3 8-12 13-22 13z"/>
<glyph glyph-name="arrow-right" unicode="&#67;" d="M107 61l64-64 259 259-259 259-64-64 195-195z"/>
<glyph glyph-name="arrow-up" unicode="&#68;" d="M488 128c-6 0-12 2-16 7l-216 198-216-198c-4-5-10-7-17-7-9 0-18 5-21 13-4 8-2 18 5 24l233 213c9 8 23 8 32 0l233-213c7-6 9-16 5-24-3-8-12-13-22-13z"/>
<glyph glyph-name="close-2" unicode="&#69;" d="M315 256l178-178c16-16 16-42 0-59-17-16-43-16-59 0l-178 178-178-178c-16-16-42-16-59 0-16 17-16 43 0 59l178 178-178 178c-16 16-16 42 0 59 17 16 43 16 59 0l178-178 178 178c16 16 42 16 59 0 16-17 16-43 0-59z"/>
<glyph glyph-name="left-arrow" unicode="&#70;" d="M120 230l220-219c7-7 16-11 26-11 9 0 18 4 26 11 14 14 14 37 0 51l-194 194 194 194c14 14 14 37 0 51-15 15-38 15-52 0l-220-219c-14-14-14-38 0-52z"/>
<glyph glyph-name="circle" unicode="&#71;" d="M512 256c0-141-115-256-256-256-141 0-256 115-256 256 0 141 115 256 256 256 141 0 256-115 256-256z"/>
<glyph glyph-name="right-arrow" unicode="&#72;" d="M392 230l-220-219c-7-7-16-11-26-11-9 0-18 4-26 11-14 14-14 37 0 51l194 194-194 194c-14 14-14 37 0 51 15 15 38 15 52 0l220-219c14-14 14-38 0-52z"/>
<glyph glyph-name="plus" unicode="&#73;" d="M286 512l0-189 190 0 0-97-190 0 0-190-97 0 0 190-189 0 0 97 189 0 0 189z"/>
<glyph glyph-name="minus" unicode="&#74;" d="M512 209l-512 0 0 106 512 0z"/>
<glyph glyph-name="quote" unicode="&#75;" d="M213 440l15-49c-79-29-127-64-128-128 1-54 48-87 99-99 13 1 25-11 29-28-4-44-45-64-72-64l-7 0c-66 0-149 60-149 163 0 110 108 179 213 205z m285 0l14-49c-80-29-126-64-128-128 2-54 48-87 100-99 13 1 23-11 21-28 2-44-39-64-64-64l-7 0c-68 0-150 60-150 163 0 110 108 179 214 205z"/>
<glyph glyph-name="checkmark" unicode="&#77;" d="M230 143l-120 121 36 36 84-85 215 215c-48 49-115 82-189 82-141 0-256-115-256-256 0-141 115-256 256-256 141 0 256 115 256 256 0 49-13 92-36 131z"/>
<glyph glyph-name="lightbulb" unicode="&#78;" d="M256 512c112 0 203-89 203-199 0-79-48-148-116-180l0-76c0-31-26-57-58-57l-58 0c-32 0-58 26-58 57l0 76c-68 32-116 101-116 180 0 110 91 199 203 199z m-146-178c14-11 43 2 65 30 21 28 28 60 14 70-14 11-43-2-65-30-22-28-28-60-14-70z"/>
<glyph glyph-name="truck" unicode="&#79;" d="M45 435c-12 0-28-15-23-45l0-224c-11-4-17-7-22-22-1 4-1-2 0 0 5-13 11-16 22-22l45 0c7-23 31-45 67-45 24 0 49 22 44 45l156 0c12-23 37-45 67-45 30 0 55 22 66 45l23 0c11 6 17 9 22 22 1-2 1 4 0 0-5 15-11 18-22 22l0 90-89 0 0 67c-9 2-1 10 0 0l66 0-22 23c2 13-10 21-22 22l-111 0 0 22c-5 30-20 45-45 45z m178-67c9 0 13-2 22 0 2-11 2-21 0-22l-89-90c-6 2-11 0-22 0 3 0-2 2 0 0l-45 45c-2-2-2 8 0 22 12-1 23-1 22 0l23-22 89 67c-4-2 0 0 0 0z m-89-202c12 0 22-9 22-22 0-13-10-22-22-22-13 0-23 9-23 22 0 13 10 22 23 22z m267 0c12 0 22-9 22-22 0-13-10-22-22-22-13 0-23 9-23 22 0 13 10 22 23 22z"/>
<glyph glyph-name="quote-2" unicode="&#76;" d="M223 452l18-50c-83-34-134-71-134-136 0-60 49-95 106-105 12-1 25-14 25-35 0-45-44-66-75-66l-2 0c-73 0-161 64-161 172 0 119 114 192 223 220z m271 0l18-50c-85-34-133-71-133-136 0-60 48-95 105-105 12-1 23-14 23-35 0-45-44-66-73-66l-2 0c-75 0-161 64-161 172 0 119 114 192 223 220z"/>
<glyph glyph-name="long-arrow-right" unicode="&#80;" d="M343 380l-7-7c-5-4-5-12 0-17l84-83-376 0c-7 0-12-5-12-12l0-10c0-7 5-12 12-12l376 0-84-83c-5-5-5-13 0-17l7-7c5-5 12-5 17 0l116 116c5 4 5 12 0 16l-116 116c-5 5-12 5-17 0z"/>
<glyph glyph-name="play" unicode="&#81;" d="M454 283l-362 224c-9 6-22 7-33 1-10-6-16-17-16-29l0-446c0-12 6-23 16-29 5-3 11-4 16-4 6 0 12 2 17 5l362 222c9 6 15 17 15 28 1 11-5 22-15 28z"/>
<glyph glyph-name="linkedin" unicode="&#82;" d="M475 512l-439 0c-20 0-36-17-36-37l0-438c0-20 16-37 36-37l439 0c21 0 37 17 37 37l0 438c0 20-16 37-37 37z m-320-439l-76 0 0 244 76 0 0-244z m-38 278c-24 1-43 20-43 44 0 24 19 43 43 44 24 0 44-20 44-44 0-24-20-44-44-44z m322-278l-76 0 0 119c0 28 0 65-39 65-40 0-46-31-46-63l0-121-76 0 0 244 73 0 0-33 1 0c10 19 35 40 72 40 77 0 91-51 91-117z"/>
<glyph glyph-name="microphone" unicode="&#83;" d="M256 512c-44 0-80-36-80-81l0-162c0-44 36-80 80-80 44 0 80 36 80 80l0 162c0 45-36 81-80 81z m-157-243c-16 0-29-14-26-30 13-81 76-144 156-156l0-56c0-15 12-27 27-27 15 0 27 12 27 27l0 56c80 12 143 75 156 156 3 16-10 30-26 30-13 0-24-9-26-22-11-64-65-112-131-112-66 0-120 48-131 112-2 13-13 22-26 22z"/>
<glyph glyph-name="info-book" unicode="&#84;" d="M154 456c-63 0-106-20-107-21-4-2-6-5-6-9l0-31-10 0c-18 0-31-14-31-31l0-267c0-18 13-31 31-31l202 0c6-6 14-10 23-10 9 0 17 4 23 10l202 0c18 0 31 13 31 31l0 267c0 17-13 31-31 31l-10 0 0 31c0 4-2 7-6 9-1 1-44 21-107 21-52 0-90-14-102-19-12 5-50 19-102 19z m0-20c45 0 78-11 92-18l0-297c-18 7-50 16-92 16-42 0-75-9-93-16l0 297c14 7 48 18 93 18z m204 0c45 0 79-11 93-18l0-297c-18 7-51 16-93 16-42 0-74-9-92-16l0 297c14 7 47 18 92 18z m0-52c-11 0-20-9-20-20 0-11 9-21 20-21 12 0 21 10 21 21 0 11-9 20-21 20z m-32-71c-6-1-10-6-10-12 1-5 6-10 12-9l10 0 0-103 41 0 0 113c0 6-4 11-10 11l-41 0c-1 0-1 0-1 0-1 0-1 0-1 0z"/>
<glyph glyph-name="articles" unicode="&#85;" d="M449 378l-129 128c-4 4-9 6-14 6l-209 0c-22 0-39-18-39-39l0-434c0-21 17-39 39-39l318 0c22 0 39 18 39 39l0 325c0 6-2 11-5 14z m-133-240l-159 0c-11 0-20 9-20 20 0 10 9 19 20 19l159 0c10 0 19-9 19-19 0-11-9-20-19-20z m39 79l-198 0c-11 0-20 8-20 19 0 11 9 20 20 20l198 0c11 0 20-9 20-20 0-11-9-19-20-19z m-39 137c-11 0-20 9-20 20l0 101 121-121z"/>
<glyph glyph-name="play-1" unicode="&#86;" d="M48 470l0-429c0-32 36-52 63-34l334 214c25 16 25 54 0 70l-334 214c-27 18-63-2-63-35z"/>
</font>
</defs>
</svg>
