<svg id="Layer_1" data-name="Layer 1" xmlns="http://www.w3.org/2000/svg" viewBox="0 0 300 300"><title>PK-added energy</title><path d="M126.14,165.27H125q-12.4,0-24.82,0a9,9,0,0,1-9-7.14,8.58,8.58,0,0,1,1.94-7.67q10.05-11.64,20.14-23.24Q126.4,112,139.55,96.84q10.15-11.73,20.33-23.45c4.67-5.39,9.36-10.77,14-16.19,2.88-3.36,6.49-4.56,10.23-3.31A8.93,8.93,0,0,1,190,64.45q-7.1,30.71-14.18,61.41c-.67,2.9-1.32,5.81-2,8.88H175q12.42,0,24.83,0a8.93,8.93,0,0,1,9.11,7.66,8.37,8.37,0,0,1-2,7c-4.42,5.16-8.88,10.28-13.33,15.41l-25.19,29.08L148,217.52q-11.18,12.9-22.36,25.8a9,9,0,0,1-15.64-7.9l16-69.06C126,166,126.07,165.69,126.14,165.27Zm6.82-5.45a5.64,5.64,0,0,1-.08.71q-4.93,21.41-9.88,42.81-3.82,16.57-7.64,33.18a3.56,3.56,0,0,0,1.77,4.24,3.65,3.65,0,0,0,4.42-1c1.4-1.57,2.77-3.17,4.15-4.76l25.44-29.37q9.35-10.8,18.72-21.59,12.63-14.56,25.25-29.15c2.51-2.9,5-5.79,7.53-8.7a3.39,3.39,0,0,0-.53-5.19,5.34,5.34,0,0,0-2.75-.73c-10.41-.05-20.82,0-31.24,0H167c.07-.38.11-.66.17-.94Q174.38,108,181.6,76.72c1.06-4.56,2.13-9.11,3.12-13.68A3.39,3.39,0,0,0,181.79,59a3.6,3.6,0,0,0-3.4,1.42q-8.73,10.09-17.48,20.17Q149,94.33,137,108.11l-27.84,32.15L97.36,153.87a3.48,3.48,0,0,0-.91,2.78c.24,2,1.74,3.16,4,3.17H133Z"/></svg>