<svg id="Layer_1" data-name="Layer 1" xmlns="http://www.w3.org/2000/svg" viewBox="0 0 300 300"><title>PK-Treat</title><path d="M242,112.52c-.72-1.8-2.27-1.93-4.06-1.89-2,0-4,0-6,0H229V107.4c0-2.15,0-4.19,0-6.22,0-2.73-1-3.74-3.75-3.76h-9.09l-.06-.16L216,97a.9.9,0,0,1-.13-.39c0-2.54,0-5.09,0-7.64,0-4.07-.68-4.74-4.84-4.74h-8.39V81c0-2.06,0-4,0-6,0-3.11-1-4.06-4.07-4.06h-9.15v-.25c0-1,0-1.91,0-2.83,0-2.12,0-4.13,0-6.15,0-1.73-.26-3-1.81-3.72s-2.75,0-4.08,1.34-2.72,2.77-4.07,4.17C176,67,172.53,70.65,168.8,73.9c-4.52,3.93-6.15,7.89-5.26,12.83.35,2-.74,3.28-1.79,4.33l-11.48,11.43c-18.26,18.18-37.13,37-55.51,55.66-2.16,2.2-4.63,4.33-7.66,5.19-1.92.55-3.88.25-5.83.5-2.42.31-3.71,1.53-5.38,3.17-3.68,3.61-7.31,7.25-11,10.89l-5.73,5.73c-1,1-1.87,2.17-1.25,3.77.55,1.42,1.61,2,3.6,2s4.18,0,6.38,0h3v3.19c0,2,0,4,0,6,0,3.11,1,4.06,4.06,4.07h8.9l0,.19c0,.17.08.3.1.39a1.23,1.23,0,0,1,.08.38q0,3.91,0,7.85c0,3.58.82,4.41,4.35,4.41h8.88v3.32c0,2.2,0,4.28,0,6.37,0,2.45,1.09,3.5,3.56,3.52,2.07,0,4.15,0,6.32,0h3.34v3.07c0,2.16,0,4.2,0,6.27s.52,3.07,1.91,3.65c1.55.64,2.65,0,3.92-1.31l5.92-5.92c3.05-3,6.19-6.16,9.25-9.28,1-1.07,1.87-1.86,2.53-2.49,2.42-2.32,2.42-2.32,2.32-5.69,0-.93-.07-2.08-.06-3.59a6.66,6.66,0,0,1,2.21-5.17l7.92-7.89c19.38-19.29,39.42-39.24,58.92-59.05,3.74-3.8,7.33-6.13,12.68-5.17,1.54.27,2.88-.27,4.34-1.75,6-6.09,12.11-12.16,17.82-17.82C241.58,115.63,242.78,114.44,242,112.52Zm-10.61,4.54-.56.65c-.3.34-.51.59-.75.83l-2.27,2.28c-2.79,2.81-5.67,5.71-8.57,8.5a4.41,4.41,0,0,1-1.78.86c-.27.09-.54.17-.78.27a1,1,0,0,1-.55,0c-6.13-1.05-10.14,2-13.57,5.51-19.52,19.86-39.58,39.83-59,59.15L132.67,206c-1.57,1.57-2.55,3.06-2.19,5.19.82,4.86-.73,8.66-4.9,12a54.18,54.18,0,0,0-5.6,5.43c-.78.84-1.59,1.7-2.42,2.53l-.11.12-.81-.33v-.17c0-.44,0-.88,0-1.33,0-1,0-2,0-2.94,0-2.33-1.14-3.43-3.44-3.45-2.14,0-4.28,0-6.52,0h-3.26v-9c0-3.4-.86-4.23-4.32-4.23H90.2v-3.16c0-2.14,0-4.22,0-6.3,0-2.72-1-3.74-3.74-3.76H77v-7.24c0-5.74-.22-6-5.86-6H68.48l.29-.4c.14-.19.26-.37.37-.53a4.87,4.87,0,0,1,.58-.76l1.72-1.73c3.06-3.08,6.23-6.27,9.4-9.35a4.13,4.13,0,0,1,2.48-1,41.78,41.78,0,0,1,5.81,0,5.48,5.48,0,0,0,4.54-1.89c18.75-18.85,37.25-37.38,57.75-57.91l.9-.9c4.64-4.64,9.43-9.44,14.22-14.07,2.41-2.33,3.35-4.65,3-7.31-.57-3.88.66-6.87,4-9.68a88.86,88.86,0,0,0,6.38-6.25c1-1,2-2.1,3.09-3.19l.43-.43V70.4c0,1.12,0,2.06,0,3,0,2.47,1.1,3.54,3.53,3.56,2.14,0,4.28,0,6.49,0h3.2v3.18c0,2.15,0,4.23,0,6.31,0,2.7,1,3.71,3.78,3.73,2,0,4.05,0,6.18,0h3.26v3.06c0,2,0,4.06,0,6.07,0,3.16.91,4.08,4,4.09H223v9.19c0,3.08,1,4,4.09,4h4.64Z"/><polygon points="122.41 168.12 168.13 122.4 164.41 118.82 118.97 164.25 122.41 168.12"/><polygon points="121.15 210.86 125.11 207.27 92.66 174.84 88.97 178.66 121.15 210.86"/><polygon points="175.03 92.47 207.49 124.98 211.09 121.42 178.67 88.99 175.03 92.47"/><polygon points="142 167.46 145.52 171.29 171.25 145.55 167.68 141.78 142 167.46"/></svg>