<svg id="Layer_1" data-name="Layer 1" xmlns="http://www.w3.org/2000/svg" viewBox="0 0 300 300"><defs><style>.cls-1{fill:none;}</style></defs><title>PK-Weight loss</title><path class="cls-1" d="M168.83,87.68c-.23-.09-.48-.15-.93-.3-1.05,1.79-1.32,4.53-4.16,3.71s-2-3.11-1.26-5.43a74.18,74.18,0,0,0-9.71-1.61c.06,2.47.24,5.38-2.45,5.56-3.33.22-2.57-3.08-3-5.42-3.22.41-6.12.92-9.66,1.53.65,2.21,1.52,4.37-1.09,5.3-3,1.07-3.23-1.91-4.54-3.78-2,1.15-3.88,2.24-5.77,3.35-1.21.72-1.4,1.58-.85,3,2,5,3.87,10,5.73,15.07L136,120.55a14.9,14.9,0,0,1,11.46-10.2c0-4.19,0-8.38,0-12.57,0-1.93.43-3.55,2.67-3.55s2.71,1.61,2.68,3.54c-.05,4.17,0,8.34,0,12.5A15.07,15.07,0,0,1,163,116.86a14.39,14.39,0,0,1,1.61,3.09,27.17,27.17,0,0,0,1.26-3.1q1.25-3.27,2.47-6.54,2.42-6.47,4.82-12.94C175.64,90.81,175.46,90.43,168.83,87.68Z"/><path class="cls-1" d="M179.23,77.65c-17.29-8.51-35.16-8.65-53.15-2.23a34,34,0,0,0-15.91,11.17,4.41,4.41,0,0,0-.65,3.61c5.56,14.66,11.29,29.26,16.91,43.9a2.66,2.66,0,0,0,3,2c6.82-.09,13.65,0,20.48,0s13.49-.1,20.22.06c2.15,0,3.13-.68,3.87-2.62q8.22-21.5,16.65-42.9c.71-1.79.6-3.25-.72-4.39C186.44,83.23,183.23,79.61,179.23,77.65Zm.84,17c-3.92,9.81-7.55,19.74-11.16,29.67a4.3,4.3,0,0,1-4.77,3.24c-4.69-.13-9.39,0-14.09,0h0c-4.86,0-9.73,0-14.59,0a3.71,3.71,0,0,1-4-2.77q-5.74-15.6-11.71-31.12a4.37,4.37,0,0,1,1.42-5.49c3.07-2.22,6.24-4.65,9.76-5.86a59.29,59.29,0,0,1,37.49-.4c3.57,1.09,6.88,3.34,10,5.52C180.77,89.09,181.32,91.54,180.07,94.65Z"/><path d="M230.09,96.49a36.18,36.18,0,0,0-3.77-2.18c-9.17-4.59-19.07-6.85-29-9.11A4.08,4.08,0,0,1,195,84c-5-7-12-11.33-19.95-14.15A74.25,74.25,0,0,0,131.67,68c-10.49,2.59-19.87,7.27-26.58,16.21a4.15,4.15,0,0,1-2.2,1c-6.91,1.89-14,3.39-20.71,5.72a75.93,75.93,0,0,0-13.46,6.67,6.84,6.84,0,0,0-3.64,7.1c1.45,10.57,2.85,21.15,4.28,31.73q4.26,31.6,8.51,63.21c1.39,10.33,2.76,20.65,4.17,31,.44,3.24,1,3.75,4.27,3.75h24.1c1.8,0,3.09-.82,3.09-2.65s-1.3-2.64-3.1-2.64c-7,0-14,0-21,0-1.34,0-2.17-.14-2.38-1.82-1.28-10.08-2.69-20.15-4-30.22q-6-44.67-12-89.36c-.68-5-.68-5.11,3.72-7.7.29-.18.58-.36.88-.51,8.45-4.3,17.55-6.59,26.75-8.53a2.44,2.44,0,0,1,2,1.16c1,2.13,1.74,4.39,2.61,6.71-1,.27-1.8.49-2.61.73q-10.42,3.07-20.86,6.15c-2.13.63-3.16,1.9-2.7,4.19.17.83.23,1.69.34,2.54l5.43,40.11q4.27,31.72,8.55,63.46c.47,3.44,1,3.86,4.45,3.86h101c3.59,0,4.09-.37,4.58-4q5.24-39.24,10.42-78.47c.25-1.89-.28-3.34-2.29-3.59-2.19-.27-2.92,1.22-3.17,3.15q-4.12,31.62-8.3,63.23c-.62,4.71-1.3,9.41-1.95,14.12H100.38c-.19-1.16-.38-2.17-.51-3.18q-3.81-28-7.6-56.1c-1.91-14.13-3.78-28.26-5.75-42.39-.27-1.86.33-2.59,2-3,3.29-.89,6.53-2,9.81-2.91,3.51-1,7-1.82,10.6-2.74,4.54,11.65,9,22.91,13.28,34.24.93,2.45,2.21,3.45,4.89,3.43q22.94-.17,45.87,0c2.67,0,4-1,4.9-3.41C182,127.4,186.21,116.7,190.36,106c.47-1.22.85-2.15,2.5-1.66q9.58,2.79,19.21,5.43c1.5.41,1.79,1.19,1.57,2.6-.62,4.23-1.11,8.47-1.71,12.69-.27,1.87.14,3.4,2.15,3.68s2.95-1.15,3.2-3.11c.63-5,1.36-10,2-15,.46-3.51.2-4-3.1-5.06-7.56-2.37-15.16-4.64-22.87-7,.7-1.83,1.57-3.78,2.17-5.8.53-1.77,1.39-2.26,3.17-1.77,4.6,1.29,9.36,2.11,13.83,3.73,5.18,1.88,10.15,4.35,15.15,6.7a3.46,3.46,0,0,1,2,4c-2.56,18.43-5,36.89-7.49,55.33-3,21.92-6,43.83-8.85,65.76-.28,2.15-1,2.58-3,2.57L164.33,229h-41a5,5,0,0,0-3.86,1.07,1.82,1.82,0,0,0-.32,2.63,3.77,3.77,0,0,0,1.19,1.16,3.65,3.65,0,0,0,.53.25,11.41,11.41,0,0,0,4.08.27l5.15,0,13.16,0h70c4,0,4.42-.39,5-4.45q2.66-20.06,5.35-40.11c3.71-27.67,7.33-55.36,11.28-83C235.55,101.9,233.79,98.93,230.09,96.49ZM190.63,90.6Q182.19,112,174,133.5c-.74,1.94-1.72,2.67-3.87,2.62-6.73-.16-13.48-.06-20.22-.06s-13.66-.05-20.48,0a2.66,2.66,0,0,1-3-2c-5.62-14.64-11.35-29.24-16.91-43.9a4.41,4.41,0,0,1,.65-3.61,34,34,0,0,1,15.91-11.17c18-6.42,35.86-6.28,53.15,2.23,4,2,7.21,5.58,10.68,8.56C191.23,87.35,191.34,88.81,190.63,90.6Z"/><path d="M178.38,87.4c-3.09-2.18-6.4-4.43-10-5.52a59.29,59.29,0,0,0-37.49.4c-3.52,1.21-6.69,3.64-9.76,5.86a4.37,4.37,0,0,0-1.42,5.49q6,15.53,11.71,31.12a3.71,3.71,0,0,0,4,2.77c4.86,0,9.73,0,14.59,0h0c4.7,0,9.4-.09,14.09,0a4.3,4.3,0,0,0,4.77-3.24c3.61-9.93,7.24-19.86,11.16-29.67C181.32,91.54,180.77,89.09,178.38,87.4Zm-36.67,35.15a8.61,8.61,0,0,1,17.22.16ZM173.2,97.37q-2.41,6.47-4.82,12.94-1.23,3.27-2.47,6.54a27.17,27.17,0,0,1-1.26,3.1,14.39,14.39,0,0,0-1.61-3.09,15.07,15.07,0,0,0-10.32-6.59c0-4.16,0-8.33,0-12.5,0-1.93-.44-3.54-2.68-3.54s-2.69,1.62-2.67,3.55c0,4.19,0,8.38,0,12.57A14.9,14.9,0,0,0,136,120.55l-4.78-11.91c-1.86-5-3.75-10.07-5.73-15.07-.55-1.4-.36-2.26.85-3,1.89-1.11,3.79-2.2,5.77-3.35,1.31,1.87,1.55,4.85,4.54,3.78,2.61-.93,1.74-3.09,1.09-5.3,3.54-.61,6.44-1.12,9.66-1.53.4,2.34-.36,5.64,3,5.42,2.69-.18,2.51-3.09,2.45-5.56a74.18,74.18,0,0,1,9.71,1.61c-.69,2.32-1.55,4.61,1.26,5.43s3.11-1.92,4.16-3.71c.45.15.7.21.93.3C175.46,90.43,175.64,90.81,173.2,97.37Z"/></svg>